<?xml version="1.0" standalone="no"?>
<!DOCTYPE svg PUBLIC "-//W3C//DTD SVG 20010904//EN"
 "http://www.w3.org/TR/2001/REC-SVG-20010904/DTD/svg10.dtd">
<svg version="1.0" xmlns="http://www.w3.org/2000/svg"
 width="480.000000pt" height="480.000000pt" viewBox="0 0 480.000000 480.000000"
 preserveAspectRatio="xMidYMid meet">
<metadata>
Created by potrace 1.11, written by Peter Selinger 2001-2013
</metadata>
<g transform="translate(0.000000,480.000000) scale(0.100000,-0.100000)"
fill="#000000" stroke="none">
<path d="M2462 4623 c-17 -34 -71 -128 -215 -373 -27 -47 -58 -98 -67 -115
-28 -49 -147 -252 -216 -367 -35 -59 -64 -109 -64 -113 0 -3 -11 -22 -24 -43
-24 -38 -73 -122 -216 -372 -45 -80 -106 -185 -135 -235 -72 -123 -300 -534
-336 -605 -46 -91 -39 -160 25 -237 8 -10 37 -46 65 -81 107 -135 106 -134
164 -129 57 5 466 108 541 137 44 16 78 13 72 -7 -2 -10 -11 -43 -20 -73 -31
-116 -59 -217 -76 -275 -10 -33 -28 -96 -40 -140 -12 -44 -30 -107 -40 -140
-10 -33 -28 -96 -40 -140 -22 -78 -37 -129 -79 -270 -11 -38 -30 -104 -41
-145 -12 -41 -30 -102 -40 -135 -10 -33 -28 -94 -40 -135 -27 -91 -51 -171
-79 -265 -40 -133 -19 -215 53 -215 28 0 44 12 112 83 44 45 111 120 149 167
39 47 78 94 89 105 10 11 55 65 99 120 45 55 84 102 87 105 3 3 53 61 110 130
57 69 111 132 120 140 9 8 63 71 120 140 57 69 111 132 120 140 9 8 63 71 120
140 57 69 111 132 120 140 9 8 72 80 140 160 68 80 131 152 140 160 9 8 53 60
99 115 46 55 114 134 151 175 74 82 157 181 209 248 l34 44 -7 285 c-8 317
-11 334 -72 359 -19 8 -72 19 -117 25 -77 9 -139 18 -512 68 -82 11 -190 25
-240 31 -49 6 -118 16 -152 21 -74 13 -70 -4 -48 204 8 77 24 232 35 345 11
113 29 288 40 390 11 102 23 242 26 311 7 124 6 126 -17 142 -13 10 -38 17
-56 17 -28 0 -35 -6 -51 -37z"/>
</g>
</svg>
